# xmcd
#
# Track frame offsets:
#	150
#	12299
#	23252
#	34960
#	47222
#	58628
#	71603
#	80976
#	93255
#	107174
#	117911
#	130732
#	141062
#	150931
#	160987
#	171493
#
# Disc length: 2413 seconds
#
# Revision: 1
# Processed by: cddbd v1.5.2PL0 Copyright (c) Steve Scherf et al.
# Submitted via: audiograbber 1.83.01
#
DISCID=d0096b10
DTITLE=Various Artist - Rock and Roll legends cd 1
DYEAR=1900
DGENRE=Rock and Roll
TTITLE0=Fats Domino-The Fat Man
TTITLE1=Littel Richard-Lucille
TTITLE2=Danny&The Juniors At THe Hop
TTITLE3=Bill Haley-See You Later, Alligator
TTITLE4=Fats Domino-Ain´t That a Shame
TTITLE5=John Fred and His Playboy Band-Judy in Disguise
TTITLE6=Littel Richard-Long Tall Sally
TTITLE7=The Evely Brothers-Cathy´s Clown
TTITLE8=Fats Domino-Blueberry Hill
TTITLE9=Littel Richard-Tutti Frutti
TTITLE10=The Drifters-stand By Me
TTITLE11=Fats Domino-I´m Walking
TTITLE12=Little Ricard-Keep a Knocking
TTITLE13=Carl Perkins-Blue Sued Shoes
TTITLE14=Del Shannon-Runaway
TTITLE15=Little Richard-Good Golly Miss Molly
EXTD=
EXTT0=
EXTT1=
EXTT2=
EXTT3=
EXTT4=
EXTT5=
EXTT6=
EXTT7=
EXTT8=
EXTT9=
EXTT10=
EXTT11=
EXTT12=
EXTT13=
EXTT14=
EXTT15=
PLAYORDER=
